<svg id="svg" xmlns="http://www.w3.org/2000/svg" xmlns:xlink="http://www.w3.org/1999/xlink" width="400" height="400" viewBox="0, 0, 400,400"><g id="svgg"><path id="path0" d="M174.813 31.957 C 117.144 44.952,94.693 70.874,64.008 159.892 C 42.625 221.925,42.899 219.847,56.107 219.847 C 80.145 219.847,84.390 222.358,94.263 242.411 C 109.994 274.367,120.335 283.956,143.517 288.085 L 163.359 291.619 166.065 322.909 L 168.772 354.198 223.664 354.198 L 278.556 354.198 276.817 341.221 C 275.860 334.084,274.211 316.565,273.151 302.290 L 271.225 276.336 287.136 264.268 C 395.917 181.765,308.877 1.747,174.813 31.957 M173.683 116.794 C 182.090 185.350,182.202 185.708,187.543 161.252 C 189.041 154.395,191.194 152.883,200.582 152.092 L 211.826 151.145 226.069 104.136 C 233.903 78.282,241.024 58.358,241.894 59.862 C 242.764 61.365,247.399 89.046,252.193 121.374 C 261.466 183.899,262.945 188.013,268.384 166.412 C 272.352 150.653,299.237 144.001,299.237 158.779 C 299.237 163.497,297.201 164.885,290.282 164.885 C 284.403 164.885,280.775 166.721,279.718 170.229 C 278.833 173.168,274.493 189.303,270.073 206.086 C 265.654 222.868,261.192 237.969,260.157 239.643 C 259.122 241.318,254.511 217.968,249.909 187.756 C 236.911 102.405,238.786 106.990,229.309 137.405 C 221.290 163.141,221.132 163.366,210.440 164.271 L 199.659 165.183 191.195 200.912 C 181.495 241.858,180.427 245.595,178.884 243.948 C 178.265 243.288,173.928 213.568,169.245 177.904 C 164.563 142.240,159.949 113.824,158.992 114.759 C 158.035 115.693,153.706 127.011,149.372 139.908 L 141.493 163.359 122.655 164.268 C 105.571 165.092,103.817 164.610,103.817 159.092 C 103.817 154.005,106.181 152.854,118.219 152.076 L 132.621 151.145 147.990 104.586 C 156.443 78.979,164.060 58.025,164.917 58.021 C 165.773 58.018,169.718 84.466,173.683 116.794 " stroke="none" fill="#000000" fill-rule="evenodd"></path></g></svg>