<svg id="svg" xmlns="http://www.w3.org/2000/svg" xmlns:xlink="http://www.w3.org/1999/xlink" width="400" height="400" viewBox="0, 0, 400,400"><g id="svgg"><path id="path0" d="M86.090 71.119 C 37.736 86.738,2.178 160.685,1.751 246.512 C 1.268 343.488,34.799 358.800,97.943 290.439 C 126.800 259.199,121.702 260.685,200.000 260.685 C 278.298 260.685,273.200 259.199,302.057 290.439 C 365.201 358.800,398.732 343.488,398.249 246.512 C 397.579 111.889,328.434 39.723,241.528 82.946 C 206.091 100.570,194.030 100.634,159.366 83.381 C 132.302 69.911,104.324 65.229,86.090 71.119 M291.646 117.346 C 306.633 129.482,297.055 155.039,277.519 155.039 C 261.069 155.039,251.277 138.801,258.871 124.115 C 265.940 110.445,279.632 107.617,291.646 117.346 M122.227 129.014 C 125.656 130.330,127.132 134.941,127.132 144.340 L 127.132 157.783 139.973 158.736 C 164.514 160.559,162.752 186.047,138.084 186.047 L 124.031 186.047 124.031 199.664 C 124.031 211.633,123.085 213.519,116.215 215.243 C 103.312 218.481,96.124 212.435,96.124 198.341 C 96.124 186.052,96.118 186.047,83.644 186.047 C 73.335 186.047,70.674 184.756,68.344 178.627 C 62.974 164.505,67.383 158.140,82.532 158.140 L 96.124 158.140 96.124 144.703 C 96.124 127.197,104.451 122.193,122.227 129.014 M348.062 152.551 C 355.073 160.660,354.962 171.137,347.770 180.018 C 339.996 189.619,323.570 189.619,315.796 180.018 C 297.345 157.233,328.890 130.379,348.062 152.551 M286.334 173.985 C 307.125 183.459,300.400 213.953,277.519 213.953 C 257.687 213.953,249.166 193.768,263.111 179.823 C 273.411 169.523,275.427 169.016,286.334 173.985 " stroke="none" fill="#000000" fill-rule="evenodd"></path></g></svg>